<svg width="742" height="653" viewBox="0 0 742 653" fill="none" xmlns="http://www.w3.org/2000/svg">
<g filter="url(#filter0_dg_617_6)">
<mask id="path-1-outside-1_617_6" maskUnits="userSpaceOnUse" x="68.1526" y="144.875" width="335.55" height="376.982" fill="black">
<rect fill="white" x="68.1526" y="144.875" width="335.55" height="376.982"/>
<path d="M271.463 486.872L211.777 376.061L77.2815 246.611L148.291 208.363L192.973 256.651L209.711 277.978L201.114 252.266L185.831 188.143L250.961 153.062L285.883 341.397L343.377 448.137L271.463 486.872Z"/>
</mask>
<path d="M271.463 486.872L211.777 376.061L77.2815 246.611L148.291 208.363L192.973 256.651L209.711 277.978L201.114 252.266L185.831 188.143L250.961 153.062L285.883 341.397L343.377 448.137L271.463 486.872Z" fill="white"/>
<path d="M271.463 486.872L267.061 489.243L269.432 493.646L273.834 491.274L271.463 486.872ZM211.777 376.061L216.179 373.69L215.808 373.002L215.244 372.459L211.777 376.061ZM77.2815 246.611L74.9104 242.208L68.8752 245.459L73.8142 250.213L77.2815 246.611ZM148.291 208.363L151.961 204.967L149.33 202.124L145.92 203.961L148.291 208.363ZM192.973 256.651L196.906 253.564L196.78 253.404L196.643 253.255L192.973 256.651ZM209.711 277.978L205.778 281.065L214.453 276.392L209.711 277.978ZM201.114 252.266L196.25 253.425L196.302 253.641L196.372 253.852L201.114 252.266ZM185.831 188.143L183.46 183.741L180.076 185.563L180.967 189.302L185.831 188.143ZM250.961 153.062L255.877 152.15L254.627 145.408L248.59 148.66L250.961 153.062ZM285.883 341.397L280.967 342.309L281.11 343.079L281.481 343.768L285.883 341.397ZM343.377 448.137L345.748 452.54L350.15 450.168L347.779 445.766L343.377 448.137ZM271.463 486.872L275.865 484.501L216.179 373.69L211.777 376.061L207.375 378.432L267.061 489.243L271.463 486.872ZM211.777 376.061L215.244 372.459L80.7488 243.008L77.2815 246.611L73.8142 250.213L208.309 379.664L211.777 376.061ZM77.2815 246.611L79.6526 251.013L150.662 212.765L148.291 208.363L145.92 203.961L74.9104 242.208L77.2815 246.611ZM148.291 208.363L144.621 211.759L189.303 260.047L192.973 256.651L196.643 253.255L151.961 204.967L148.291 208.363ZM192.973 256.651L189.039 259.738L205.778 281.065L209.711 277.978L213.644 274.891L196.906 253.564L192.973 256.651ZM209.711 277.978L214.453 276.392L205.856 250.68L201.114 252.266L196.372 253.852L204.969 279.563L209.711 277.978ZM201.114 252.266L205.978 251.107L190.695 186.984L185.831 188.143L180.967 189.302L196.25 253.425L201.114 252.266ZM185.831 188.143L188.202 192.545L253.332 157.464L250.961 153.062L248.59 148.66L183.46 183.741L185.831 188.143ZM250.961 153.062L246.045 153.974L280.967 342.309L285.883 341.397L290.8 340.485L255.877 152.15L250.961 153.062ZM285.883 341.397L281.481 343.768L338.975 450.509L343.377 448.137L347.779 445.766L290.285 339.026L285.883 341.397ZM343.377 448.137L341.006 443.735L269.092 482.47L271.463 486.872L273.834 491.274L345.748 452.54L343.377 448.137Z" fill="black" mask="url(#path-1-outside-1_617_6)"/>
<mask id="path-3-outside-2_617_6" maskUnits="userSpaceOnUse" x="285.001" y="153" width="190" height="314" fill="black">
<rect fill="white" x="285.001" y="153" width="190" height="314"/>
<path d="M290.249 462V158.388H361.144L398.132 299.662V158.388H469.54V462H399.159L361.657 336.137V462H290.249Z"/>
</mask>
<path d="M290.249 462V158.388H361.144L398.132 299.662V158.388H469.54V462H399.159L361.657 336.137V462H290.249Z" fill="white"/>
<path d="M290.249 462H285.249V467H290.249V462ZM290.249 158.388V153.388H285.249V158.388H290.249ZM361.144 158.388L365.981 157.121L365.003 153.388H361.144V158.388ZM398.132 299.662L393.295 300.929L403.132 299.662H398.132ZM398.132 158.388V153.388H393.132V158.388H398.132ZM469.54 158.388H474.54V153.388H469.54V158.388ZM469.54 462V467H474.54V462H469.54ZM399.159 462L394.368 463.428L395.432 467H399.159V462ZM361.657 336.137L366.449 334.709L356.657 336.137H361.657ZM361.657 462V467H366.657V462H361.657ZM290.249 462H295.249V158.388H290.249H285.249V462H290.249ZM290.249 158.388V163.388H361.144V158.388V153.388H290.249V158.388ZM361.144 158.388L356.307 159.654L393.295 300.929L398.132 299.662L402.969 298.396L365.981 157.121L361.144 158.388ZM398.132 299.662H403.132V158.388H398.132H393.132V299.662H398.132ZM398.132 158.388V163.388H469.54V158.388V153.388H398.132V158.388ZM469.54 158.388H464.54V462H469.54H474.54V158.388H469.54ZM469.54 462V457H399.159V462V467H469.54V462ZM399.159 462L403.951 460.572L366.449 334.709L361.657 336.137L356.866 337.565L394.368 463.428L399.159 462ZM361.657 336.137H356.657V462H361.657H366.657V336.137H361.657ZM361.657 462V457H290.249V462V467H361.657V462Z" fill="black" mask="url(#path-3-outside-2_617_6)"/>
<mask id="path-5-outside-3_617_6" maskUnits="userSpaceOnUse" x="424.464" y="151.961" width="285.463" height="356.015" fill="black">
<rect fill="white" x="424.464" y="151.961" width="285.463" height="356.015"/>
<path d="M431.394 454.014L543.848 168.635L661.325 196.454L632.854 501.721L543.372 480.531L549.553 436.592L531.057 432.212L517.877 474.493L431.394 454.014ZM540.672 393.838L558.669 398.1L585.54 244.499L540.672 393.838Z"/>
</mask>
<path d="M431.394 454.014L543.848 168.635L661.325 196.454L632.854 501.721L543.372 480.531L549.553 436.592L531.057 432.212L517.877 474.493L431.394 454.014ZM540.672 393.838L558.669 398.1L585.54 244.499L540.672 393.838Z" fill="white"/>
<path d="M431.394 454.014L426.742 452.181L424.627 457.549L430.242 458.879L431.394 454.014ZM543.848 168.635L545 163.769L540.785 162.771L539.196 166.802L543.848 168.635ZM661.325 196.454L666.303 196.918L666.707 192.59L662.477 191.588L661.325 196.454ZM632.854 501.721L631.702 506.586L637.299 507.912L637.833 502.185L632.854 501.721ZM543.372 480.531L538.421 479.834L537.786 484.346L542.22 485.396L543.372 480.531ZM549.553 436.592L554.505 437.289L555.139 432.777L550.706 431.727L549.553 436.592ZM531.057 432.212L532.209 427.347L527.671 426.272L526.284 430.724L531.057 432.212ZM517.877 474.493L516.725 479.359L521.263 480.433L522.65 475.981L517.877 474.493ZM540.672 393.838L535.884 392.4L534.357 397.481L539.52 398.704L540.672 393.838ZM558.669 398.1L557.516 402.965L562.68 404.188L563.594 398.962L558.669 398.1ZM585.54 244.499L590.465 245.361L580.751 243.06L585.54 244.499ZM431.394 454.014L436.046 455.847L548.5 170.468L543.848 168.635L539.196 166.802L426.742 452.181L431.394 454.014ZM543.848 168.635L542.696 173.5L660.173 201.319L661.325 196.454L662.477 191.588L545 163.769L543.848 168.635ZM661.325 196.454L656.347 195.99L627.876 501.257L632.854 501.721L637.833 502.185L666.303 196.918L661.325 196.454ZM632.854 501.721L634.006 496.855L544.524 475.665L543.372 480.531L542.22 485.396L631.702 506.586L632.854 501.721ZM543.372 480.531L548.323 481.227L554.505 437.289L549.553 436.592L544.602 435.896L538.421 479.834L543.372 480.531ZM549.553 436.592L550.706 431.727L532.209 427.347L531.057 432.212L529.905 437.078L548.401 441.458L549.553 436.592ZM531.057 432.212L526.284 430.724L513.104 473.005L517.877 474.493L522.65 475.981L535.831 433.7L531.057 432.212ZM517.877 474.493L519.029 469.628L432.546 449.148L431.394 454.014L430.242 458.879L516.725 479.359L517.877 474.493ZM540.672 393.838L539.52 398.704L557.516 402.965L558.669 398.1L559.821 393.235L541.824 388.973L540.672 393.838ZM558.669 398.1L563.594 398.962L590.465 245.361L585.54 244.499L580.614 243.638L553.743 397.238L558.669 398.1ZM585.54 244.499L580.751 243.06L535.884 392.4L540.672 393.838L545.461 395.277L590.328 245.938L585.54 244.499Z" fill="black" mask="url(#path-5-outside-3_617_6)"/>
</g>
<defs>
<filter id="filter0_dg_617_6" x="64.875" y="141.408" width="605.832" height="374.503" filterUnits="userSpaceOnUse" color-interpolation-filters="sRGB">
<feFlood flood-opacity="0" result="BackgroundImageFix"/>
<feColorMatrix in="SourceAlpha" type="matrix" values="0 0 0 0 0 0 0 0 0 0 0 0 0 0 0 0 0 0 127 0" result="hardAlpha"/>
<feOffset dy="4"/>
<feGaussianBlur stdDeviation="2"/>
<feColorMatrix type="matrix" result="shdwTex" values="0 0 0 0 0 0 0 0 0 0 0 0 0 0 0 0 0 0 0.25 0"/><feTurbulence type="fractalNoise" baseFrequency="0.99900001287460327 0.99900001287460327" numOctaves="3" seed="7912" />
<feDisplacementMap in="shdwTex" scale="8" xChannelSelector="R" yChannelSelector="G" result="displacedImage" width="100%" height="100%" />
<feBlend mode="normal" in2="BackgroundImageFix" result="effect1_dropShadow_617_6"/>
<feBlend mode="normal" in="SourceGraphic" in2="BackgroundImageFix" result="shape"/>
<feTurbulence type="fractalNoise" baseFrequency="0.99900001287460327 0.99900001287460327" numOctaves="3" seed="7912" result="displacementX" />
<feTurbulence type="fractalNoise" baseFrequency="0.99900001287460327 0.99900001287460327" numOctaves="3" seed="7913" result="displacementY" />
<feColorMatrix in="displacementX" type="matrix" values="0 0 0 1 0  0 0 0 0 0  0 0 0 0 0  0 0 0 0 1" result="displacementXRed" />
<feColorMatrix in="displacementY" type="matrix" values="0 0 0 0 0  0 0 0 1 0  0 0 0 0 0  0 0 0 0 1" />
<feComposite in="displacementXRed" operator="arithmetic" k1="0" k2="1" k3="1" k4="0"/>
<feDisplacementMap in="shape" scale="8" xChannelSelector="R" yChannelSelector="G" width="100%" height="100%" />
<feColorMatrix type="matrix" values="0 0 0 0 0  0 0 0 0 0  0 0 0 0 0  0 0 0 1 0" />
<feComponentTransfer result="sourceDisplacedAlpha">
<feFuncA type="gamma" exponent="0.2" />
</feComponentTransfer>
<feColorMatrix in="shape" type="matrix" values="0 0 0 0 0  0 0 0 0 0  0 0 0 0 0  0 0 0 1 0" />
<feComponentTransfer result="inputSourceAlpha">
<feFuncA type="gamma" exponent="0.2" />
</feComponentTransfer>
<feComposite in="sourceDisplacedAlpha" operator="arithmetic" k1="1" k2="0" k3="0" k4="0" result="displacementAlphasMultiplied"/>
<feComposite in="displacementAlphasMultiplied"  operator="arithmetic" k1="0" k2="0" k3="-0.5" k4="0.5" result="centeringAdjustment"/>
<feComposite in="displacementX" in2="displacementAlphasMultiplied" operator="arithmetic" k1="1" k2="0" k3="0" k4="0" />
<feComposite in="centeringAdjustment" operator="arithmetic" k1="0" k2="1" k3="1" k4="0" />
<feColorMatrix  type="matrix" values="0 0 0 1 0  0 0 0 0 0  0 0 0 0 0  0 0 0 0 1" result="displacementXFinal" />
<feComposite in="displacementY" in2="displacementAlphasMultiplied" operator="arithmetic" k1="1" k2="0" k3="0" k4="0" />
<feComposite in="centeringAdjustment" operator="arithmetic" k1="0" k2="1" k3="1" k4="0" />
<feColorMatrix  type="matrix" values="0 0 0 0 0  0 0 0 1 0  0 0 0 0 0  0 0 0 0 1" result="displacementYFinal" />
<feComposite in="displacementXFinal" in2="displacementYFinal" operator="arithmetic" k1="0" k2="1" k3="1" k4="0" />
<feComposite in2="displacementAlphasMultiplied" operator="in" result="displacementMap" />
<feFlood flood-color="rgb(127, 127, 127)" flood-opacity="1"/>
<feComposite in2="displacementAlphasMultiplied" operator="out" />
<feComposite in2="displacementMap" operator="over" result="displacementMapWithBg"/>
<feDisplacementMap in="shape" scale="8" xChannelSelector="R" yChannelSelector="G" width="100%" height="100%" result="displacedImage" />
<feColorMatrix in="shape" type="matrix" values="1 0 0 0 0  0 1 0 0 0  0 0 1 0 0  0 0 0 127 0" result="imageOpaque" />
<feDisplacementMap in="imageOpaque" in2="displacementMapWithBg" scale="8" xChannelSelector="R" yChannelSelector="G" width="100%" height="100%" result="displacedImageOpaque" />
<feColorMatrix in="displacedImage" type="matrix" values="0 0 0 1 0  0 0 0 0 0  0 0 0 0 0  0 0 0 127 0" result="displacedImageRed" />
<feColorMatrix in="shape" type="matrix" values="0 0 0 1 0  0 0 0 0 0  0 0 0 0 0  0 0 0 127 0" />
<feComposite in="displacedImageRed"  operator="atop" result="transparencyRedMap"/>
<feColorMatrix in="transparencyRedMap" type="matrix" values="0 0 0 0 0  0 0 0 0 0  0 0 0 0 0  1 0 0 0 0" result="transparencyAlphaMap" />
<feComposite in="displacedImageOpaque" in2="imageOpaque" operator="over" />
<feComposite in2="transparencyAlphaMap" operator="in" result="effect2_texture_617_6"/>
<feBlend mode="normal" in="effect2_texture_617_6" in2="effect1_dropShadow_617_6" result="effect2_texture_617_6"/>
</filter>
</defs>
</svg>
